<svg width="120" height="134" viewBox="0 0 120 134" fill="none" xmlns="http://www.w3.org/2000/svg">
<path d="M53.2851 1.77712C57.3978 -0.592375 62.4646 -0.592375 66.5777 1.77712L113.216 28.6461C117.329 31.0156 119.862 35.3942 119.862 40.1332V56.11L93.3853 56.1174L69.8772 56.1253C68.8285 56.1253 67.9782 55.2768 67.9782 54.2304V29.7726C67.9782 28.8816 66.8572 28.4833 66.293 29.1739L26.4812 77.8972L0 51.2766V40.1332C0 35.3942 2.53361 31.0156 6.64627 28.6461L53.2851 1.77712Z" fill="white"/>
<path d="M26.4812 77.8972L49.9935 77.9194C51.0418 77.9199 51.8911 78.7683 51.8911 79.8143V104.252C51.8911 105.144 53.0121 105.542 53.5763 104.851L93.3853 56.1174L119.862 82.7232V93.8712C119.862 98.6102 117.329 102.989 113.216 105.358L66.5777 132.227C62.4646 134.597 57.3978 134.597 53.2851 132.227L6.64627 105.358C2.53361 102.989 0 98.6102 0 93.8712V77.8967L26.4812 77.8972Z" fill="white"/>
</svg>
