<svg width="78" height="27" viewBox="0 0 78 27" fill="none" xmlns="http://www.w3.org/2000/svg">
<path d="M10.7202 0.358066C11.5476 -0.119355 12.567 -0.119355 13.3945 0.358066L22.7775 5.77179C23.6049 6.24921 24.1147 7.13144 24.1147 8.08628V11.3054L18.7878 11.3069L14.0583 11.3085C13.8473 11.3085 13.6763 11.1375 13.6763 10.9267V5.99875C13.6763 5.81923 13.4508 5.73898 13.3372 5.87814L5.32766 15.6952L0 10.3315V8.08628C0 7.13144 0.509728 6.24921 1.33714 5.77179L10.7202 0.358066Z" fill="white"/>
<path d="M5.32766 15.6952L10.058 15.6997C10.2689 15.6998 10.4398 15.8707 10.4398 16.0814V21.0054C10.4398 21.185 10.6653 21.2652 10.7788 21.1261L18.7878 11.3069L24.1147 16.6676V18.9137C24.1147 19.8686 23.6049 20.7508 22.7775 21.2282L13.3945 26.6419C12.567 27.1194 11.5476 27.1194 10.7202 26.6419L1.33714 21.2282C0.509728 20.7508 0 19.8686 0 18.9137V15.6951L5.32766 15.6952Z" fill="white"/>
<path d="M30.2952 18.7101C31.2049 19.3777 32.4558 19.7115 34.0479 19.7115C35.0713 19.7115 35.9598 19.5553 36.7132 19.2428C37.4665 18.9302 38.0493 18.497 38.4616 17.943C38.888 17.3747 39.1012 16.7071 39.1012 15.94C39.1012 14.903 38.7103 14.0791 37.9285 13.4683C37.1609 12.8574 36.0948 12.481 34.7302 12.3389L33.7067 12.2324C33.0813 12.1614 32.6264 12.0264 32.3421 11.8275C32.072 11.6287 31.937 11.3445 31.937 10.9752C31.937 10.5917 32.1076 10.2791 32.4487 10.0376C32.7899 9.79615 33.2732 9.67541 33.8986 9.67541C34.5951 9.67541 35.1282 9.81746 35.4978 10.1016C35.8674 10.3857 36.0664 10.7266 36.0948 11.1244H38.7601C38.7174 9.9169 38.2555 9.00065 37.3741 8.37561C36.4928 7.75057 35.3414 7.43805 33.9199 7.43805C33.0102 7.43805 32.2 7.58011 31.4892 7.86421C30.7927 8.13412 30.2454 8.53897 29.8474 9.07878C29.4494 9.61858 29.2504 10.2862 29.2504 11.0817C29.2504 12.0761 29.5986 12.8716 30.2952 13.4683C30.9917 14.0649 31.9867 14.4342 33.2803 14.5763L34.3037 14.6828C35.0713 14.7538 35.6115 14.903 35.9242 15.1303C36.2512 15.3576 36.4146 15.663 36.4146 16.0465C36.4146 16.4869 36.2014 16.8349 35.775 17.0906C35.3627 17.3463 34.8013 17.4742 34.0905 17.4742C33.2376 17.4742 32.6122 17.3108 32.2142 16.9841C31.8162 16.6574 31.5958 16.2951 31.5532 15.8974H28.8879C28.9305 17.0906 29.3996 18.0282 30.2952 18.7101Z" fill="white"/>
<path d="M40.4146 13.886V8.1171H43.197V13.886C43.197 15.4745 44.4856 16.7623 46.0751 16.7623C47.6647 16.7623 48.9533 15.4745 48.9533 13.886V8.1171H51.7356V13.886C51.7356 17.0102 49.2014 19.5428 46.0751 19.5428C42.9489 19.5428 40.4146 17.0102 40.4146 13.886Z" fill="white"/>
<path fill-rule="evenodd" clip-rule="evenodd" d="M59.3385 7.74385C57.9916 7.74385 56.8251 8.00636 55.8945 8.60157L55.8179 8.65055V8.16685H53.4471V16.3107H53.4513V23.0495H55.9521V18.3348L56.2278 18.5089C57.1281 19.0769 58.1946 19.4057 59.3385 19.4057C62.561 19.4057 65.1733 16.7951 65.1733 13.5748C65.1733 10.3544 62.561 7.74385 59.3385 7.74385ZM56.0045 13.5748C56.0045 11.7347 57.4972 10.243 59.3385 10.243C61.1798 10.243 62.6725 11.7347 62.6725 13.5748C62.6725 15.4149 61.1798 16.9066 59.3385 16.9066C57.4972 16.9066 56.0045 15.4149 56.0045 13.5748Z" fill="white"/>
<path fill-rule="evenodd" clip-rule="evenodd" d="M78 8.16685V16.3107H77.9959V19.2727H75.4951V18.3348L75.2193 18.5089C74.319 19.0769 73.2525 19.4057 72.1086 19.4057C68.8861 19.4057 66.2738 16.7951 66.2738 13.5748C66.2738 10.3544 68.8861 7.74385 72.1086 7.74385C73.4526 7.74385 74.6191 8.10198 75.5511 8.74869L75.6292 8.80292V8.16685H78ZM72.1086 10.243C70.2673 10.243 68.7746 11.7347 68.7746 13.5748C68.7746 15.4149 70.2673 16.9066 72.1086 16.9066C73.9499 16.9066 75.4426 15.4149 75.4426 13.5748C75.4426 11.7347 73.9499 10.243 72.1086 10.243Z" fill="white"/>
</svg>
