<svg width="388" height="134" viewBox="0 0 388 134" fill="none" xmlns="http://www.w3.org/2000/svg">
<path d="M53.2851 1.77712C57.3978 -0.592375 62.4646 -0.592375 66.5777 1.77712L113.216 28.6461C117.329 31.0156 119.862 35.3942 119.862 40.1332V56.11L93.3853 56.1174L69.8772 56.1253C68.8285 56.1253 67.9782 55.2768 67.9782 54.2304V29.7726C67.9782 28.8816 66.8572 28.4833 66.293 29.1739L26.4812 77.8972L0 51.2766V40.1332C0 35.3942 2.53361 31.0156 6.64627 28.6461L53.2851 1.77712Z" fill="#101011"/>
<path d="M26.4812 77.8972L49.9935 77.9194C51.0418 77.9199 51.8911 78.7683 51.8911 79.8143V104.252C51.8911 105.144 53.0121 105.542 53.5763 104.851L93.3853 56.1174L119.862 82.7232V93.8712C119.862 98.6102 117.329 102.989 113.216 105.358L66.5777 132.227C62.4646 134.597 57.3978 134.597 53.2851 132.227L6.64627 105.358C2.53361 102.989 0 98.6102 0 93.8712V77.8967L26.4812 77.8972Z" fill="#101011"/>
<path d="M150.583 92.8604C155.105 96.174 161.322 97.8309 169.236 97.8309C174.323 97.8309 178.739 97.0553 182.483 95.5043C186.228 93.9532 189.125 91.8028 191.174 89.0532C193.294 86.2331 194.353 82.9194 194.353 79.1122C194.353 73.9655 192.41 69.8763 188.524 66.8447C184.709 63.813 179.41 61.9447 172.627 61.2396L167.54 60.7109C164.431 60.3584 162.17 59.6886 160.757 58.7015C159.415 57.7145 158.743 56.3044 158.743 54.4713C158.743 52.5677 159.591 51.0167 161.287 49.8181C162.983 48.6195 165.385 48.0203 168.494 48.0203C171.956 48.0203 174.605 48.7253 176.442 50.1354C178.279 51.5454 179.269 53.2375 179.41 55.2116H192.658C192.446 49.2188 190.15 44.6714 185.769 41.5692C181.388 38.4671 175.665 36.916 168.6 36.916C164.078 36.916 160.051 37.621 156.518 39.0311C153.056 40.3707 150.335 42.38 148.357 45.0591C146.379 47.7383 145.39 51.0519 145.39 55.0001C145.39 59.9353 147.121 63.8835 150.583 66.8447C154.045 69.8058 158.991 71.6389 165.42 72.3439L170.507 72.8727C174.323 73.2252 177.008 73.9655 178.562 75.0935C180.187 76.2216 181 77.7374 181 79.641C181 81.8266 179.94 83.5539 177.82 84.823C175.771 86.0921 172.98 86.7266 169.448 86.7266C165.208 86.7266 162.099 85.9158 160.121 84.2942C158.143 82.6726 157.048 80.8748 156.836 78.9007H143.588C143.8 84.823 146.131 89.4762 150.583 92.8604Z" fill="#101011"/>
<path d="M200.882 68.9181V40.2862H214.712V68.9181C214.712 76.8021 221.117 83.1934 229.017 83.1934C236.918 83.1934 243.323 76.8021 243.323 68.9181V40.2862H257.153V68.9181C257.153 84.4237 244.556 96.9934 229.017 96.9934C213.479 96.9934 200.882 84.4237 200.882 68.9181Z" fill="#101011"/>
<path fill-rule="evenodd" clip-rule="evenodd" d="M294.943 38.4337C288.248 38.4337 282.451 39.7366 277.825 42.6907L277.444 42.9338V40.5331H265.66V80.9521H265.681V114.398H278.111V90.9979L279.482 91.8618C283.956 94.681 289.258 96.3129 294.943 96.3129C310.961 96.3129 323.945 83.3563 323.945 67.3735C323.945 51.3903 310.961 38.4337 294.943 38.4337ZM278.372 67.3735C278.372 58.2409 285.791 50.8372 294.943 50.8372C304.096 50.8372 311.515 58.2409 311.515 67.3735C311.515 76.5061 304.096 83.9094 294.943 83.9094C285.791 83.9094 278.372 76.5061 278.372 67.3735Z" fill="#101011"/>
<path fill-rule="evenodd" clip-rule="evenodd" d="M387.701 40.5331V80.9521H387.68V95.653H375.25V90.9979L373.879 91.8618C369.404 94.681 364.103 96.3129 358.417 96.3129C342.4 96.3129 329.415 83.3563 329.415 67.3735C329.415 51.3903 342.4 38.4337 358.417 38.4337C365.097 38.4337 370.896 40.2112 375.528 43.4209L375.917 43.69V40.5331H387.701ZM358.417 50.8372C349.265 50.8372 341.846 58.2409 341.846 67.3735C341.846 76.5061 349.265 83.9094 358.417 83.9094C367.569 83.9094 374.989 76.5061 374.989 67.3735C374.989 58.2409 367.569 50.8372 358.417 50.8372Z" fill="#101011"/>
</svg>
